# xmcd
#
# Track frame offsets:
#	150
#	14215
#	30847
#	46386
#	60221
#	72814
#	93672
#	113042
#	126058
#	135451
#	153609
#	164955
#	183081
#
# Disc length: 2605 seconds
#
# Revision: 1
# Processed by: cddbd v1.5.1PL0 Copyright (c) Steve Scherf et al.
# Submitted via: EZCDDA 4.3.3.2
#
DISCID=ab0a2b0d
DTITLE=Bianca DeLeon - The Long Slow Decline of Carmelita
DYEAR=2004
DGENRE=
TTITLE0=Don't Drink The Water Pancho
TTITLE1=Nowhere Mexico
TTITLE2=In The Moon Light
TTITLE3=Somebody Shot Manuel
TTITLE4=For Lost Love
TTITLE5=In The Shadow of a Sagebrush
TTITLE6=The Long Slow Decline of Carmelita
TTITLE7=6 Pak of Misery
TTITLE8=Friends
TTITLE9=Muy Cerca de Mi
TTITLE10=Guitarra Mia
TTITLE11=High and Lonesome
TTITLE12=Countin' Pennies
EXTD=
EXTT0=
EXTT1=
EXTT2=
EXTT3=
EXTT4=
EXTT5=
EXTT6=
EXTT7=
EXTT8=
EXTT9=
EXTT10=
EXTT11=
EXTT12=
PLAYORDER=
